<?xml version="1.0" encoding="UTF-8" ?><svg xmlns="http://www.w3.org/2000/svg" version="1.1" preserveAspectRatio="xMidYMid meet" viewBox="38 38 124 124"><g><path fill="currentColor" d="M99.68,39.384c-33.664,0-61.052,27.388-61.052,61.053s27.388,61.053,61.052,61.053   c33.664,0,61.053-27.388,61.053-61.053S133.344,39.384,99.68,39.384z M122.149,119.323l24.959-0.019   c-1.415,3.545-3.21,6.897-5.346,10l-25.39,0.019l-16.388,0.012h-5.421l0.002,0.004l12.506,21.612   c-2.415,0.352-4.881,0.542-7.392,0.542c-1.327,0-2.638-0.067-3.94-0.167l-12.726-21.991l-8.475-14.646l-2.442-4.229l-0.003,0.005   l-12.441,21.611c-2.338-2.952-4.367-6.159-6.015-9.586l12.684-22.033l8.36-14.521l2.542-4.402h-0.007h-24.95   c1.418-3.544,3.216-6.894,5.354-9.996h25.375h21.821l-12.49-21.621c2.403-0.348,4.856-0.537,7.354-0.537   c1.34,0,2.664,0.068,3.979,0.17l12.702,21.988l7.524,13.024l3.388,5.868l0.001-0.002l12.457-21.601   c2.336,2.954,4.362,6.163,6.008,9.591l-12.693,22.01l-8.289,14.373l-2.611,4.522H122.149z"></path><polygon fill="currentColor" points="121.505,100.429 116.283,91.388 110.593,81.534 110.59,81.534 88.766,81.534 88.75,81.534    83.165,91.235 77.852,100.437 77.86,100.45 77.854,100.461 83.371,109.996 88.766,119.34 88.779,119.34 88.783,119.348    99.894,119.34 110.593,119.34 110.598,119.332 110.604,119.332 116.067,109.859 121.507,100.437 121.504,100.431"></polygon></g></svg>
